<mxfile host="app.diagrams.net" modified="2023-05-09T06:31:49.882Z" agent="Mozilla/5.0 (Windows NT 10.0; Win64; x64) AppleWebKit/537.36 (KHTML, like Gecko) Chrome/113.0.0.0 Safari/537.36" etag="2j98fsIpmy2kRbKRXE90" version="21.2.2" type="device">
  <diagram id="kgpKYQtTHZ0yAKxKKP6v" name="Page-1">
    <mxGraphModel dx="819" dy="505" grid="0" gridSize="10" guides="1" tooltips="1" connect="1" arrows="1" fold="1" page="1" pageScale="1" pageWidth="850" pageHeight="1100" math="0" shadow="0">
      <root>
        <mxCell id="0" />
        <mxCell id="1" parent="0" />
        <mxCell id="PvAAyF8MSgyJc7YRibaf-2" value="User&lt;br&gt;" style="shape=umlActor;verticalLabelPosition=bottom;verticalAlign=top;html=1;outlineConnect=0;" parent="1" vertex="1">
          <mxGeometry x="40" y="335" width="30" height="60" as="geometry" />
        </mxCell>
        <mxCell id="PvAAyF8MSgyJc7YRibaf-3" value="Universal List" style="rounded=1;whiteSpace=wrap;html=1;" parent="1" vertex="1">
          <mxGeometry x="140" y="255" width="160" height="50" as="geometry" />
        </mxCell>
        <mxCell id="PvAAyF8MSgyJc7YRibaf-4" value="My List" style="rounded=1;whiteSpace=wrap;html=1;" parent="1" vertex="1">
          <mxGeometry x="140" y="345" width="160" height="50" as="geometry" />
        </mxCell>
        <mxCell id="PvAAyF8MSgyJc7YRibaf-5" value="Donate" style="rounded=1;whiteSpace=wrap;html=1;" parent="1" vertex="1">
          <mxGeometry x="140" y="445" width="160" height="50" as="geometry" />
        </mxCell>
        <mxCell id="PvAAyF8MSgyJc7YRibaf-6" value="" style="endArrow=classic;html=1;rounded=0;entryX=0;entryY=0.5;entryDx=0;entryDy=0;" parent="1" target="PvAAyF8MSgyJc7YRibaf-4" edge="1">
          <mxGeometry width="50" height="50" relative="1" as="geometry">
            <mxPoint x="80" y="370" as="sourcePoint" />
            <mxPoint x="270" y="355" as="targetPoint" />
          </mxGeometry>
        </mxCell>
        <mxCell id="PvAAyF8MSgyJc7YRibaf-7" value="" style="endArrow=classic;html=1;rounded=0;entryX=0;entryY=0.5;entryDx=0;entryDy=0;" parent="1" target="PvAAyF8MSgyJc7YRibaf-3" edge="1">
          <mxGeometry width="50" height="50" relative="1" as="geometry">
            <mxPoint x="80" y="355" as="sourcePoint" />
            <mxPoint x="140" y="355" as="targetPoint" />
          </mxGeometry>
        </mxCell>
        <mxCell id="PvAAyF8MSgyJc7YRibaf-8" value="" style="endArrow=classic;html=1;rounded=0;entryX=0;entryY=0.5;entryDx=0;entryDy=0;" parent="1" target="PvAAyF8MSgyJc7YRibaf-5" edge="1">
          <mxGeometry width="50" height="50" relative="1" as="geometry">
            <mxPoint x="80" y="395" as="sourcePoint" />
            <mxPoint x="140" y="390" as="targetPoint" />
          </mxGeometry>
        </mxCell>
        <mxCell id="PvAAyF8MSgyJc7YRibaf-11" value="G" style="ellipse;whiteSpace=wrap;html=1;aspect=fixed;fillColor=#00CC00;strokeColor=#82B366;" parent="1" vertex="1">
          <mxGeometry x="40" y="40" width="80" height="80" as="geometry" />
        </mxCell>
        <mxCell id="PvAAyF8MSgyJc7YRibaf-12" value="R" style="ellipse;whiteSpace=wrap;html=1;aspect=fixed;strokeColor=#b85450;fillColor=#FF0000;" parent="1" vertex="1">
          <mxGeometry x="160" y="40" width="80" height="80" as="geometry" />
        </mxCell>
        <mxCell id="PvAAyF8MSgyJc7YRibaf-13" value="Regrets" style="text;html=1;align=center;verticalAlign=middle;resizable=0;points=[];autosize=1;strokeColor=none;fillColor=none;" parent="1" vertex="1">
          <mxGeometry x="170" y="120" width="70" height="30" as="geometry" />
        </mxCell>
        <mxCell id="PvAAyF8MSgyJc7YRibaf-14" value="Pathways" style="text;html=1;align=center;verticalAlign=middle;resizable=0;points=[];autosize=1;strokeColor=none;fillColor=none;" parent="1" vertex="1">
          <mxGeometry x="40" y="120" width="80" height="30" as="geometry" />
        </mxCell>
        <mxCell id="PvAAyF8MSgyJc7YRibaf-15" value="Quote" style="swimlane;fontStyle=0;childLayout=stackLayout;horizontal=1;startSize=30;horizontalStack=0;resizeParent=1;resizeParentMax=0;resizeLast=0;collapsible=1;marginBottom=0;whiteSpace=wrap;html=1;" parent="1" vertex="1">
          <mxGeometry x="40" y="550" width="280" height="90" as="geometry" />
        </mxCell>
        <mxCell id="PvAAyF8MSgyJc7YRibaf-16" value="Can be a Regret (R) or Pathway (G)" style="text;strokeColor=none;fillColor=none;align=left;verticalAlign=middle;spacingLeft=4;spacingRight=4;overflow=hidden;points=[[0,0.5],[1,0.5]];portConstraint=eastwest;rotatable=0;whiteSpace=wrap;html=1;" parent="PvAAyF8MSgyJc7YRibaf-15" vertex="1">
          <mxGeometry y="30" width="280" height="30" as="geometry" />
        </mxCell>
        <mxCell id="PvAAyF8MSgyJc7YRibaf-17" value="Can have a customized font (optional)" style="text;strokeColor=none;fillColor=none;align=left;verticalAlign=middle;spacingLeft=4;spacingRight=4;overflow=hidden;points=[[0,0.5],[1,0.5]];portConstraint=eastwest;rotatable=0;whiteSpace=wrap;html=1;" parent="PvAAyF8MSgyJc7YRibaf-15" vertex="1">
          <mxGeometry y="60" width="280" height="30" as="geometry" />
        </mxCell>
        <mxCell id="PvAAyF8MSgyJc7YRibaf-19" value="" style="endArrow=classic;html=1;rounded=0;dashed=1;exitX=1;exitY=0.5;exitDx=0;exitDy=0;entryX=0;entryY=0.5;entryDx=0;entryDy=0;" parent="1" source="PvAAyF8MSgyJc7YRibaf-3" target="PvAAyF8MSgyJc7YRibaf-21" edge="1">
          <mxGeometry width="50" height="50" relative="1" as="geometry">
            <mxPoint x="190" y="400" as="sourcePoint" />
            <mxPoint x="360" y="280" as="targetPoint" />
          </mxGeometry>
        </mxCell>
        <mxCell id="PvAAyF8MSgyJc7YRibaf-21" value="&lt;span style=&quot;text-align: left;&quot;&gt;Save quotes that match one&#39;s own experience&lt;/span&gt;" style="rounded=1;whiteSpace=wrap;html=1;" parent="1" vertex="1">
          <mxGeometry x="362" y="123" width="170" height="39" as="geometry" />
        </mxCell>
        <mxCell id="PvAAyF8MSgyJc7YRibaf-22" value="" style="endArrow=classic;html=1;rounded=0;dashed=1;entryX=0;entryY=0.5;entryDx=0;entryDy=0;exitX=1.008;exitY=0.492;exitDx=0;exitDy=0;exitPerimeter=0;" parent="1" target="PvAAyF8MSgyJc7YRibaf-23" edge="1" source="PvAAyF8MSgyJc7YRibaf-3">
          <mxGeometry width="50" height="50" relative="1" as="geometry">
            <mxPoint x="300" y="279" as="sourcePoint" />
            <mxPoint x="360" y="370" as="targetPoint" />
          </mxGeometry>
        </mxCell>
        <mxCell id="PvAAyF8MSgyJc7YRibaf-23" value="&lt;div style=&quot;text-align: left;&quot;&gt;&lt;span style=&quot;background-color: initial;&quot;&gt;Add quotes (G/R) to the list&lt;/span&gt;&lt;/div&gt;" style="rounded=1;whiteSpace=wrap;html=1;" parent="1" vertex="1">
          <mxGeometry x="362" y="185" width="170" height="36" as="geometry" />
        </mxCell>
        <mxCell id="PvAAyF8MSgyJc7YRibaf-24" value="" style="endArrow=classic;html=1;rounded=0;exitX=1;exitY=0.5;exitDx=0;exitDy=0;entryX=0;entryY=0.25;entryDx=0;entryDy=0;" parent="1" source="PvAAyF8MSgyJc7YRibaf-3" target="PvAAyF8MSgyJc7YRibaf-25" edge="1">
          <mxGeometry width="50" height="50" relative="1" as="geometry">
            <mxPoint x="300" y="290" as="sourcePoint" />
            <mxPoint x="360" y="290" as="targetPoint" />
          </mxGeometry>
        </mxCell>
        <mxCell id="PvAAyF8MSgyJc7YRibaf-25" value="&lt;div style=&quot;text-align: left;&quot;&gt;&lt;span style=&quot;background-color: initial;&quot;&gt;Visualize list&lt;/span&gt;&lt;/div&gt;" style="rounded=1;whiteSpace=wrap;html=1;" parent="1" vertex="1">
          <mxGeometry x="362" y="345" width="117" height="50" as="geometry" />
        </mxCell>
        <mxCell id="PvAAyF8MSgyJc7YRibaf-26" value="" style="endArrow=classic;html=1;rounded=0;entryX=0;entryY=0.5;entryDx=0;entryDy=0;exitX=1;exitY=0.5;exitDx=0;exitDy=0;" parent="1" source="PvAAyF8MSgyJc7YRibaf-4" target="PvAAyF8MSgyJc7YRibaf-25" edge="1">
          <mxGeometry width="50" height="50" relative="1" as="geometry">
            <mxPoint x="300" y="370" as="sourcePoint" />
            <mxPoint x="370" y="335" as="targetPoint" />
          </mxGeometry>
        </mxCell>
        <mxCell id="PvAAyF8MSgyJc7YRibaf-28" value="When clicked, it caches&lt;br&gt;&amp;nbsp;locally the databases" style="text;html=1;align=center;verticalAlign=middle;resizable=0;points=[];autosize=1;strokeColor=none;fillColor=none;fontColor=#B3B3B3;" parent="1" vertex="1">
          <mxGeometry x="150" y="220" width="150" height="40" as="geometry" />
        </mxCell>
        <mxCell id="PvAAyF8MSgyJc7YRibaf-30" value="Locally stored database" style="text;html=1;align=center;verticalAlign=middle;resizable=0;points=[];autosize=1;strokeColor=none;fillColor=none;fontColor=#B3B3B3;" parent="1" vertex="1">
          <mxGeometry x="145" y="315" width="150" height="30" as="geometry" />
        </mxCell>
        <mxCell id="PvAAyF8MSgyJc7YRibaf-31" value="https://dbdiagram.io/d/63b3f4cc7d39e42284e89922" style="shape=cylinder3;whiteSpace=wrap;html=1;boundedLbl=1;backgroundOutline=1;size=15;fillColor=#FFFFFF;" parent="1" vertex="1">
          <mxGeometry x="380" y="550" width="300" height="90" as="geometry" />
        </mxCell>
        <mxCell id="PvAAyF8MSgyJc7YRibaf-32" value="Database" style="text;html=1;align=center;verticalAlign=middle;resizable=0;points=[];autosize=1;strokeColor=none;fillColor=none;fontColor=#B3B3B3;" parent="1" vertex="1">
          <mxGeometry x="495" y="550" width="70" height="30" as="geometry" />
        </mxCell>
        <mxCell id="Tqi3yIPmI9tH6-jDby46-1" value="" style="endArrow=classic;html=1;rounded=0;dashed=1;exitX=1;exitY=0.5;exitDx=0;exitDy=0;entryX=0;entryY=0.5;entryDx=0;entryDy=0;" edge="1" parent="1" source="PvAAyF8MSgyJc7YRibaf-25" target="Tqi3yIPmI9tH6-jDby46-2">
          <mxGeometry width="50" height="50" relative="1" as="geometry">
            <mxPoint x="570" y="307.5" as="sourcePoint" />
            <mxPoint x="553" y="318" as="targetPoint" />
          </mxGeometry>
        </mxCell>
        <mxCell id="Tqi3yIPmI9tH6-jDby46-2" value="&lt;div style=&quot;text-align: left;&quot;&gt;Filter based on G/R&lt;/div&gt;" style="rounded=1;whiteSpace=wrap;html=1;" vertex="1" parent="1">
          <mxGeometry x="532" y="345" width="114" height="50" as="geometry" />
        </mxCell>
        <mxCell id="Tqi3yIPmI9tH6-jDby46-4" value="" style="endArrow=classic;html=1;rounded=0;dashed=1;exitX=1;exitY=0.5;exitDx=0;exitDy=0;entryX=0;entryY=0.5;entryDx=0;entryDy=0;" edge="1" parent="1" source="PvAAyF8MSgyJc7YRibaf-3" target="Tqi3yIPmI9tH6-jDby46-5">
          <mxGeometry width="50" height="50" relative="1" as="geometry">
            <mxPoint x="311" y="290" as="sourcePoint" />
            <mxPoint x="354" y="285" as="targetPoint" />
          </mxGeometry>
        </mxCell>
        <mxCell id="Tqi3yIPmI9tH6-jDby46-5" value="&lt;div style=&quot;text-align: left;&quot;&gt;&lt;span style=&quot;background-color: initial;&quot;&gt;Like quote&lt;/span&gt;&lt;/div&gt;" style="rounded=1;whiteSpace=wrap;html=1;" vertex="1" parent="1">
          <mxGeometry x="362" y="238.5" width="170" height="35" as="geometry" />
        </mxCell>
        <mxCell id="Tqi3yIPmI9tH6-jDby46-6" value="" style="endArrow=classic;html=1;rounded=0;dashed=1;exitX=1;exitY=0.5;exitDx=0;exitDy=0;entryX=0;entryY=0.5;entryDx=0;entryDy=0;" edge="1" parent="1" target="Tqi3yIPmI9tH6-jDby46-7" source="PvAAyF8MSgyJc7YRibaf-3">
          <mxGeometry width="50" height="50" relative="1" as="geometry">
            <mxPoint x="295" y="285" as="sourcePoint" />
            <mxPoint x="354" y="335" as="targetPoint" />
          </mxGeometry>
        </mxCell>
        <mxCell id="Tqi3yIPmI9tH6-jDby46-7" value="&lt;div style=&quot;text-align: left;&quot;&gt;&lt;span style=&quot;background-color: initial;&quot;&gt;Add quote&lt;/span&gt;&lt;/div&gt;" style="rounded=1;whiteSpace=wrap;html=1;" vertex="1" parent="1">
          <mxGeometry x="362" y="291" width="170" height="35" as="geometry" />
        </mxCell>
      </root>
    </mxGraphModel>
  </diagram>
</mxfile>
